<svg width="24" height="24" viewBox="0 0 24 24" fill="none" xmlns="http://www.w3.org/2000/svg">
<g clip-path="url(#clip0_19692_1584)">
<circle cx="12" cy="12.0002" r="12" fill="#D1D5DB"/>
<path d="M11.6244 5.23795C11.9306 6.29618 11.1209 7.46226 10.1928 7.73264C9.26469 8.00303 7.99673 7.44224 7.69051 6.384C7.38429 5.32577 8.02713 3.85952 8.95523 3.58914C10.1928 3.2286 11.3181 4.17972 11.6244 5.23795Z" fill="white"/>
<path d="M12.1344 5.23795C11.8282 6.29618 12.6379 7.46226 13.566 7.73264C14.4941 8.00303 15.7621 7.44224 16.0683 6.384C16.3745 5.32577 15.7317 3.85952 14.8036 3.58914C13.566 3.2286 12.4407 4.17972 12.1344 5.23795Z" fill="white"/>
<path d="M17.8809 12.9691C17.8809 15.6607 15.2417 16.6613 11.6416 16.6613C8.04145 16.6613 5.46191 15.6607 5.46191 12.9691C5.46191 9.83815 8.04145 7.06165 11.6416 7.06165C15.2417 7.06165 17.8809 9.60185 17.8809 12.9691Z" fill="white"/>
<path d="M10.45 12.4374C10.45 13.3189 9.88415 14.286 9.09343 14.286C8.30271 14.286 7.02539 13.5677 7.02539 12.2509C7.02539 11.0138 8.40528 10.5739 9.83116 10.7998C10.7051 10.9382 10.45 11.5558 10.45 12.4374Z" fill="#D1D5DB"/>
<path d="M9.78974 12.3481C9.78974 12.4803 9.74997 12.5875 9.55112 12.5875C9.35227 12.5875 9.3125 12.4803 9.3125 12.3481C9.3125 12.2158 9.39204 12.1086 9.55112 12.1086C9.7102 12.1086 9.78974 12.2158 9.78974 12.3481Z" fill="white"/>
<path d="M12.8547 12.4374C12.8547 13.3189 13.4205 14.286 14.2113 14.286C15.002 14.286 16.2793 13.5677 16.2793 12.2509C16.2793 11.0138 14.8994 10.5739 13.4735 10.7998C12.5996 10.9382 12.8547 11.5558 12.8547 12.4374Z" fill="#D1D5DB"/>
<path d="M13.5169 12.3481C13.5169 12.4803 13.5567 12.5875 13.7555 12.5875C13.9544 12.5875 13.9941 12.4803 13.9941 12.3481C13.9941 12.2158 13.9146 12.1086 13.7555 12.1086C13.5964 12.1086 13.5169 12.2158 13.5169 12.3481Z" fill="white"/>
<path fill-rule="evenodd" clip-rule="evenodd" d="M11.8545 18.0004C16.6504 18.0004 20.1664 16.6487 20.1664 13.0123C20.1664 8.46317 16.6504 5.03137 11.8545 5.03137C7.05848 5.03137 3.62207 8.7824 3.62207 13.0123C3.62207 16.6487 7.05848 18.0004 11.8545 18.0004ZM11.6656 16.6037C15.1934 16.6037 17.7797 15.6138 17.7797 12.9509C17.7797 9.6195 15.1934 7.10637 11.6656 7.10637C8.1378 7.10637 5.61006 9.85328 5.61006 12.9509C5.61006 15.6138 8.1378 16.6037 11.6656 16.6037Z" fill="white"/>
<mask id="mask0_19692_1584" style="mask-type:alpha" maskUnits="userSpaceOnUse" x="0" y="0" width="24" height="25">
<circle cx="12" cy="12.0002" r="12" fill="#9CA3AF"/>
</mask>
<g mask="url(#mask0_19692_1584)">
<ellipse cx="11.75" cy="22.5002" rx="6.75" ry="7.5" fill="white"/>
</g>
</g>
<defs>
<clipPath id="clip0_19692_1584">
<rect width="24" height="24" fill="white" transform="translate(0 0.000244141)"/>
</clipPath>
</defs>
</svg>
